<svg xmlns="http://www.w3.org/2000/svg" width="500" height="500" viewBox="0 0 500 500"><rect width="100%" height="100%" fill="#ffffff"/><g fill="#000000"><rect x="157.14285714285714" y="14.285714285714286" width="14.785714285714286" height="14.785714285714286"/><rect x="185.71428571428572" y="14.285714285714286" width="14.785714285714286" height="14.785714285714286"/><rect x="200" y="14.285714285714286" width="14.785714285714286" height="14.785714285714286"/><rect x="214.2857142857143" y="14.285714285714286" width="14.785714285714286" height="14.785714285714286"/><rect x="228.57142857142858" y="14.285714285714286" width="14.785714285714286" height="14.785714285714286"/><rect x="285.7142857142857" y="14.285714285714286" width="14.785714285714286" height="14.785714285714286"/><rect x="300" y="14.285714285714286" width="14.785714285714286" height="14.785714285714286"/><rect x="314.2857142857143" y="14.285714285714286" width="14.785714285714286" height="14.785714285714286"/><rect x="342.8571428571429" y="14.285714285714286" width="14.785714285714286" height="14.785714285714286"/><rect x="128.57142857142858" y="28.571428571428573" width="14.785714285714286" height="14.785714285714286"/><rect x="157.14285714285714" y="28.571428571428573" width="14.785714285714286" height="14.785714285714286"/><rect x="200" y="28.571428571428573" width="14.785714285714286" height="14.785714285714286"/><rect x="214.2857142857143" y="28.571428571428573" width="14.785714285714286" height="14.785714285714286"/><rect x="228.57142857142858" y="28.571428571428573" width="14.785714285714286" height="14.785714285714286"/><rect x="242.85714285714286" y="28.571428571428573" width="14.785714285714286" height="14.785714285714286"/><rect x="257.14285714285717" y="28.571428571428573" width="14.785714285714286" height="14.785714285714286"/><rect x="314.2857142857143" y="28.571428571428573" width="14.785714285714286" height="14.785714285714286"/><rect x="328.5714285714286" y="28.571428571428573" width="14.785714285714286" height="14.785714285714286"/><rect x="357.14285714285717" y="28.571428571428573" width="14.785714285714286" height="14.785714285714286"/><rect x="185.71428571428572" y="42.85714285714286" width="14.785714285714286" height="14.785714285714286"/><rect x="200" y="42.85714285714286" width="14.785714285714286" height="14.785714285714286"/><rect x="228.57142857142858" y="42.85714285714286" width="14.785714285714286" height="14.785714285714286"/><rect x="271.42857142857144" y="42.85714285714286" width="14.785714285714286" height="14.785714285714286"/><rect x="285.7142857142857" y="42.85714285714286" width="14.785714285714286" height="14.785714285714286"/><rect x="300" y="42.85714285714286" width="14.785714285714286" height="14.785714285714286"/><rect x="314.2857142857143" y="42.85714285714286" width="14.785714285714286" height="14.785714285714286"/><rect x="342.8571428571429" y="42.85714285714286" width="14.785714285714286" height="14.785714285714286"/><rect x="128.57142857142858" y="57.142857142857146" width="14.785714285714286" height="14.785714285714286"/><rect x="142.85714285714286" y="57.142857142857146" width="14.785714285714286" height="14.785714285714286"/><rect x="157.14285714285714" y="57.142857142857146" width="14.785714285714286" height="14.785714285714286"/><rect x="185.71428571428572" y="57.142857142857146" width="14.785714285714286" height="14.785714285714286"/><rect x="214.2857142857143" y="57.142857142857146" width="14.785714285714286" height="14.785714285714286"/><rect x="228.57142857142858" y="57.142857142857146" width="14.785714285714286" height="14.785714285714286"/><rect x="257.14285714285717" y="57.142857142857146" width="14.785714285714286" height="14.785714285714286"/><rect x="285.7142857142857" y="57.142857142857146" width="14.785714285714286" height="14.785714285714286"/><rect x="328.5714285714286" y="57.142857142857146" width="14.785714285714286" height="14.785714285714286"/><rect x="342.8571428571429" y="57.142857142857146" width="14.785714285714286" height="14.785714285714286"/><rect x="357.14285714285717" y="57.142857142857146" width="14.785714285714286" height="14.785714285714286"/><rect x="142.85714285714286" y="71.42857142857143" width="14.785714285714286" height="14.785714285714286"/><rect x="228.57142857142858" y="71.42857142857143" width="14.785714285714286" height="14.785714285714286"/><rect x="242.85714285714286" y="71.42857142857143" width="14.785714285714286" height="14.785714285714286"/><rect x="257.14285714285717" y="71.42857142857143" width="14.785714285714286" height="14.785714285714286"/><rect x="271.42857142857144" y="71.42857142857143" width="14.785714285714286" height="14.785714285714286"/><rect x="285.7142857142857" y="71.42857142857143" width="14.785714285714286" height="14.785714285714286"/><rect x="300" y="71.42857142857143" width="14.785714285714286" height="14.785714285714286"/><rect x="342.8571428571429" y="71.42857142857143" width="14.785714285714286" height="14.785714285714286"/><rect x="128.57142857142858" y="85.71428571428572" width="14.785714285714286" height="14.785714285714286"/><rect x="142.85714285714286" y="85.71428571428572" width="14.785714285714286" height="14.785714285714286"/><rect x="171.42857142857144" y="85.71428571428572" width="14.785714285714286" height="14.785714285714286"/><rect x="185.71428571428572" y="85.71428571428572" width="14.785714285714286" height="14.785714285714286"/><rect x="271.42857142857144" y="85.71428571428572" width="14.785714285714286" height="14.785714285714286"/><rect x="300" y="85.71428571428572" width="14.785714285714286" height="14.785714285714286"/><rect x="314.2857142857143" y="85.71428571428572" width="14.785714285714286" height="14.785714285714286"/><rect x="128.57142857142858" y="100" width="14.785714285714286" height="14.785714285714286"/><rect x="157.14285714285714" y="100" width="14.785714285714286" height="14.785714285714286"/><rect x="185.71428571428572" y="100" width="14.785714285714286" height="14.785714285714286"/><rect x="214.2857142857143" y="100" width="14.785714285714286" height="14.785714285714286"/><rect x="242.85714285714286" y="100" width="14.785714285714286" height="14.785714285714286"/><rect x="271.42857142857144" y="100" width="14.785714285714286" height="14.785714285714286"/><rect x="300" y="100" width="14.785714285714286" height="14.785714285714286"/><rect x="328.5714285714286" y="100" width="14.785714285714286" height="14.785714285714286"/><rect x="357.14285714285717" y="100" width="14.785714285714286" height="14.785714285714286"/><rect x="142.85714285714286" y="114.28571428571429" width="14.785714285714286" height="14.785714285714286"/><rect x="157.14285714285714" y="114.28571428571429" width="14.785714285714286" height="14.785714285714286"/><rect x="171.42857142857144" y="114.28571428571429" width="14.785714285714286" height="14.785714285714286"/><rect x="214.2857142857143" y="114.28571428571429" width="14.785714285714286" height="14.785714285714286"/><rect x="242.85714285714286" y="114.28571428571429" width="14.785714285714286" height="14.785714285714286"/><rect x="314.2857142857143" y="114.28571428571429" width="14.785714285714286" height="14.785714285714286"/><rect x="328.5714285714286" y="114.28571428571429" width="14.785714285714286" height="14.785714285714286"/><rect x="357.14285714285717" y="114.28571428571429" width="14.785714285714286" height="14.785714285714286"/><rect x="14.285714285714286" y="128.57142857142858" width="14.785714285714286" height="14.785714285714286"/><rect x="28.571428571428573" y="128.57142857142858" width="14.785714285714286" height="14.785714285714286"/><rect x="42.85714285714286" y="128.57142857142858" width="14.785714285714286" height="14.785714285714286"/><rect x="57.142857142857146" y="128.57142857142858" width="14.785714285714286" height="14.785714285714286"/><rect x="71.42857142857143" y="128.57142857142858" width="14.785714285714286" height="14.785714285714286"/><rect x="100" y="128.57142857142858" width="14.785714285714286" height="14.785714285714286"/><rect x="114.28571428571429" y="128.57142857142858" width="14.785714285714286" height="14.785714285714286"/><rect x="128.57142857142858" y="128.57142857142858" width="14.785714285714286" height="14.785714285714286"/><rect x="142.85714285714286" y="128.57142857142858" width="14.785714285714286" height="14.785714285714286"/><rect x="171.42857142857144" y="128.57142857142858" width="14.785714285714286" height="14.785714285714286"/><rect x="242.85714285714286" y="128.57142857142858" width="14.785714285714286" height="14.785714285714286"/><rect x="257.14285714285717" y="128.57142857142858" width="14.785714285714286" height="14.785714285714286"/><rect x="285.7142857142857" y="128.57142857142858" width="14.785714285714286" height="14.785714285714286"/><rect x="328.5714285714286" y="128.57142857142858" width="14.785714285714286" height="14.785714285714286"/><rect x="342.8571428571429" y="128.57142857142858" width="14.785714285714286" height="14.785714285714286"/><rect x="357.14285714285717" y="128.57142857142858" width="14.785714285714286" height="14.785714285714286"/><rect x="371.42857142857144" y="128.57142857142858" width="14.785714285714286" height="14.785714285714286"/><rect x="400" y="128.57142857142858" width="14.785714285714286" height="14.785714285714286"/><rect x="428.5714285714286" y="128.57142857142858" width="14.785714285714286" height="14.785714285714286"/><rect x="457.14285714285717" y="128.57142857142858" width="14.785714285714286" height="14.785714285714286"/><rect x="28.571428571428573" y="142.85714285714286" width="14.785714285714286" height="14.785714285714286"/><rect x="114.28571428571429" y="142.85714285714286" width="14.785714285714286" height="14.785714285714286"/><rect x="128.57142857142858" y="142.85714285714286" width="14.785714285714286" height="14.785714285714286"/><rect x="157.14285714285714" y="142.85714285714286" width="14.785714285714286" height="14.785714285714286"/><rect x="185.71428571428572" y="142.85714285714286" width="14.785714285714286" height="14.785714285714286"/><rect x="200" y="142.85714285714286" width="14.785714285714286" height="14.785714285714286"/><rect x="214.2857142857143" y="142.85714285714286" width="14.785714285714286" height="14.785714285714286"/><rect x="228.57142857142858" y="142.85714285714286" width="14.785714285714286" height="14.785714285714286"/><rect x="285.7142857142857" y="142.85714285714286" width="14.785714285714286" height="14.785714285714286"/><rect x="300" y="142.85714285714286" width="14.785714285714286" height="14.785714285714286"/><rect x="314.2857142857143" y="142.85714285714286" width="14.785714285714286" height="14.785714285714286"/><rect x="342.8571428571429" y="142.85714285714286" width="14.785714285714286" height="14.785714285714286"/><rect x="385.7142857142857" y="142.85714285714286" width="14.785714285714286" height="14.785714285714286"/><rect x="442.8571428571429" y="142.85714285714286" width="14.785714285714286" height="14.785714285714286"/><rect x="457.14285714285717" y="142.85714285714286" width="14.785714285714286" height="14.785714285714286"/><rect x="471.42857142857144" y="142.85714285714286" width="14.785714285714286" height="14.785714285714286"/><rect x="14.285714285714286" y="157.14285714285714" width="14.785714285714286" height="14.785714285714286"/><rect x="57.142857142857146" y="157.14285714285714" width="14.785714285714286" height="14.785714285714286"/><rect x="71.42857142857143" y="157.14285714285714" width="14.785714285714286" height="14.785714285714286"/><rect x="85.71428571428572" y="157.14285714285714" width="14.785714285714286" height="14.785714285714286"/><rect x="100" y="157.14285714285714" width="14.785714285714286" height="14.785714285714286"/><rect x="114.28571428571429" y="157.14285714285714" width="14.785714285714286" height="14.785714285714286"/><rect x="157.14285714285714" y="157.14285714285714" width="14.785714285714286" height="14.785714285714286"/><rect x="200" y="157.14285714285714" width="14.785714285714286" height="14.785714285714286"/><rect x="214.2857142857143" y="157.14285714285714" width="14.785714285714286" height="14.785714285714286"/><rect x="228.57142857142858" y="157.14285714285714" width="14.785714285714286" height="14.785714285714286"/><rect x="242.85714285714286" y="157.14285714285714" width="14.785714285714286" height="14.785714285714286"/><rect x="300" y="157.14285714285714" width="14.785714285714286" height="14.785714285714286"/><rect x="314.2857142857143" y="157.14285714285714" width="14.785714285714286" height="14.785714285714286"/><rect x="328.5714285714286" y="157.14285714285714" width="14.785714285714286" height="14.785714285714286"/><rect x="357.14285714285717" y="157.14285714285714" width="14.785714285714286" height="14.785714285714286"/><rect x="371.42857142857144" y="157.14285714285714" width="14.785714285714286" height="14.785714285714286"/><rect x="400" y="157.14285714285714" width="14.785714285714286" height="14.785714285714286"/><rect x="414.28571428571433" y="157.14285714285714" width="14.785714285714286" height="14.785714285714286"/><rect x="428.5714285714286" y="157.14285714285714" width="14.785714285714286" height="14.785714285714286"/><rect x="457.14285714285717" y="157.14285714285714" width="14.785714285714286" height="14.785714285714286"/><rect x="42.85714285714286" y="171.42857142857144" width="14.785714285714286" height="14.785714285714286"/><rect x="71.42857142857143" y="171.42857142857144" width="14.785714285714286" height="14.785714285714286"/><rect x="85.71428571428572" y="171.42857142857144" width="14.785714285714286" height="14.785714285714286"/><rect x="114.28571428571429" y="171.42857142857144" width="14.785714285714286" height="14.785714285714286"/><rect x="185.71428571428572" y="171.42857142857144" width="14.785714285714286" height="14.785714285714286"/><rect x="200" y="171.42857142857144" width="14.785714285714286" height="14.785714285714286"/><rect x="228.57142857142858" y="171.42857142857144" width="14.785714285714286" height="14.785714285714286"/><rect x="271.42857142857144" y="171.42857142857144" width="14.785714285714286" height="14.785714285714286"/><rect x="285.7142857142857" y="171.42857142857144" width="14.785714285714286" height="14.785714285714286"/><rect x="300" y="171.42857142857144" width="14.785714285714286" height="14.785714285714286"/><rect x="314.2857142857143" y="171.42857142857144" width="14.785714285714286" height="14.785714285714286"/><rect x="328.5714285714286" y="171.42857142857144" width="14.785714285714286" height="14.785714285714286"/><rect x="357.14285714285717" y="171.42857142857144" width="14.785714285714286" height="14.785714285714286"/><rect x="371.42857142857144" y="171.42857142857144" width="14.785714285714286" height="14.785714285714286"/><rect x="400" y="171.42857142857144" width="14.785714285714286" height="14.785714285714286"/><rect x="442.8571428571429" y="171.42857142857144" width="14.785714285714286" height="14.785714285714286"/><rect x="14.285714285714286" y="185.71428571428572" width="14.785714285714286" height="14.785714285714286"/><rect x="85.71428571428572" y="185.71428571428572" width="14.785714285714286" height="14.785714285714286"/><rect x="100" y="185.71428571428572" width="14.785714285714286" height="14.785714285714286"/><rect x="114.28571428571429" y="185.71428571428572" width="14.785714285714286" height="14.785714285714286"/><rect x="128.57142857142858" y="185.71428571428572" width="14.785714285714286" height="14.785714285714286"/><rect x="142.85714285714286" y="185.71428571428572" width="14.785714285714286" height="14.785714285714286"/><rect x="157.14285714285714" y="185.71428571428572" width="14.785714285714286" height="14.785714285714286"/><rect x="185.71428571428572" y="185.71428571428572" width="14.785714285714286" height="14.785714285714286"/><rect x="214.2857142857143" y="185.71428571428572" width="14.785714285714286" height="14.785714285714286"/><rect x="228.57142857142858" y="185.71428571428572" width="14.785714285714286" height="14.785714285714286"/><rect x="257.14285714285717" y="185.71428571428572" width="14.785714285714286" height="14.785714285714286"/><rect x="285.7142857142857" y="185.71428571428572" width="14.785714285714286" height="14.785714285714286"/><rect x="300" y="185.71428571428572" width="14.785714285714286" height="14.785714285714286"/><rect x="328.5714285714286" y="185.71428571428572" width="14.785714285714286" height="14.785714285714286"/><rect x="357.14285714285717" y="185.71428571428572" width="14.785714285714286" height="14.785714285714286"/><rect x="371.42857142857144" y="185.71428571428572" width="14.785714285714286" height="14.785714285714286"/><rect x="414.28571428571433" y="185.71428571428572" width="14.785714285714286" height="14.785714285714286"/><rect x="428.5714285714286" y="185.71428571428572" width="14.785714285714286" height="14.785714285714286"/><rect x="14.285714285714286" y="200" width="14.785714285714286" height="14.785714285714286"/><rect x="42.85714285714286" y="200" width="14.785714285714286" height="14.785714285714286"/><rect x="71.42857142857143" y="200" width="14.785714285714286" height="14.785714285714286"/><rect x="128.57142857142858" y="200" width="14.785714285714286" height="14.785714285714286"/><rect x="142.85714285714286" y="200" width="14.785714285714286" height="14.785714285714286"/><rect x="228.57142857142858" y="200" width="14.785714285714286" height="14.785714285714286"/><rect x="242.85714285714286" y="200" width="14.785714285714286" height="14.785714285714286"/><rect x="271.42857142857144" y="200" width="14.785714285714286" height="14.785714285714286"/><rect x="285.7142857142857" y="200" width="14.785714285714286" height="14.785714285714286"/><rect x="385.7142857142857" y="200" width="14.785714285714286" height="14.785714285714286"/><rect x="457.14285714285717" y="200" width="14.785714285714286" height="14.785714285714286"/><rect x="471.42857142857144" y="200" width="14.785714285714286" height="14.785714285714286"/><rect x="42.85714285714286" y="214.2857142857143" width="14.785714285714286" height="14.785714285714286"/><rect x="71.42857142857143" y="214.2857142857143" width="14.785714285714286" height="14.785714285714286"/><rect x="85.71428571428572" y="214.2857142857143" width="14.785714285714286" height="14.785714285714286"/><rect x="100" y="214.2857142857143" width="14.785714285714286" height="14.785714285714286"/><rect x="114.28571428571429" y="214.2857142857143" width="14.785714285714286" height="14.785714285714286"/><rect x="128.57142857142858" y="214.2857142857143" width="14.785714285714286" height="14.785714285714286"/><rect x="142.85714285714286" y="214.2857142857143" width="14.785714285714286" height="14.785714285714286"/><rect x="157.14285714285714" y="214.2857142857143" width="14.785714285714286" height="14.785714285714286"/><rect x="171.42857142857144" y="214.2857142857143" width="14.785714285714286" height="14.785714285714286"/><rect x="185.71428571428572" y="214.2857142857143" width="14.785714285714286" height="14.785714285714286"/><rect x="300" y="214.2857142857143" width="14.785714285714286" height="14.785714285714286"/><rect x="314.2857142857143" y="214.2857142857143" width="14.785714285714286" height="14.785714285714286"/><rect x="400" y="214.2857142857143" width="14.785714285714286" height="14.785714285714286"/><rect x="457.14285714285717" y="214.2857142857143" width="14.785714285714286" height="14.785714285714286"/><rect x="28.571428571428573" y="228.57142857142858" width="14.785714285714286" height="14.785714285714286"/><rect x="57.142857142857146" y="228.57142857142858" width="14.785714285714286" height="14.785714285714286"/><rect x="71.42857142857143" y="228.57142857142858" width="14.785714285714286" height="14.785714285714286"/><rect x="142.85714285714286" y="228.57142857142858" width="14.785714285714286" height="14.785714285714286"/><rect x="171.42857142857144" y="228.57142857142858" width="14.785714285714286" height="14.785714285714286"/><rect x="214.2857142857143" y="228.57142857142858" width="14.785714285714286" height="14.785714285714286"/><rect x="242.85714285714286" y="228.57142857142858" width="14.785714285714286" height="14.785714285714286"/><rect x="285.7142857142857" y="228.57142857142858" width="14.785714285714286" height="14.785714285714286"/><rect x="300" y="228.57142857142858" width="14.785714285714286" height="14.785714285714286"/><rect x="314.2857142857143" y="228.57142857142858" width="14.785714285714286" height="14.785714285714286"/><rect x="342.8571428571429" y="228.57142857142858" width="14.785714285714286" height="14.785714285714286"/><rect x="371.42857142857144" y="228.57142857142858" width="14.785714285714286" height="14.785714285714286"/><rect x="400" y="228.57142857142858" width="14.785714285714286" height="14.785714285714286"/><rect x="414.28571428571433" y="228.57142857142858" width="14.785714285714286" height="14.785714285714286"/><rect x="442.8571428571429" y="228.57142857142858" width="14.785714285714286" height="14.785714285714286"/><rect x="28.571428571428573" y="242.85714285714286" width="14.785714285714286" height="14.785714285714286"/><rect x="42.85714285714286" y="242.85714285714286" width="14.785714285714286" height="14.785714285714286"/><rect x="71.42857142857143" y="242.85714285714286" width="14.785714285714286" height="14.785714285714286"/><rect x="100" y="242.85714285714286" width="14.785714285714286" height="14.785714285714286"/><rect x="114.28571428571429" y="242.85714285714286" width="14.785714285714286" height="14.785714285714286"/><rect x="128.57142857142858" y="242.85714285714286" width="14.785714285714286" height="14.785714285714286"/><rect x="142.85714285714286" y="242.85714285714286" width="14.785714285714286" height="14.785714285714286"/><rect x="171.42857142857144" y="242.85714285714286" width="14.785714285714286" height="14.785714285714286"/><rect x="242.85714285714286" y="242.85714285714286" width="14.785714285714286" height="14.785714285714286"/><rect x="257.14285714285717" y="242.85714285714286" width="14.785714285714286" height="14.785714285714286"/><rect x="271.42857142857144" y="242.85714285714286" width="14.785714285714286" height="14.785714285714286"/><rect x="300" y="242.85714285714286" width="14.785714285714286" height="14.785714285714286"/><rect x="328.5714285714286" y="242.85714285714286" width="14.785714285714286" height="14.785714285714286"/><rect x="342.8571428571429" y="242.85714285714286" width="14.785714285714286" height="14.785714285714286"/><rect x="357.14285714285717" y="242.85714285714286" width="14.785714285714286" height="14.785714285714286"/><rect x="371.42857142857144" y="242.85714285714286" width="14.785714285714286" height="14.785714285714286"/><rect x="400" y="242.85714285714286" width="14.785714285714286" height="14.785714285714286"/><rect x="414.28571428571433" y="242.85714285714286" width="14.785714285714286" height="14.785714285714286"/><rect x="457.14285714285717" y="242.85714285714286" width="14.785714285714286" height="14.785714285714286"/><rect x="42.85714285714286" y="257.14285714285717" width="14.785714285714286" height="14.785714285714286"/><rect x="128.57142857142858" y="257.14285714285717" width="14.785714285714286" height="14.785714285714286"/><rect x="142.85714285714286" y="257.14285714285717" width="14.785714285714286" height="14.785714285714286"/><rect x="157.14285714285714" y="257.14285714285717" width="14.785714285714286" height="14.785714285714286"/><rect x="185.71428571428572" y="257.14285714285717" width="14.785714285714286" height="14.785714285714286"/><rect x="200" y="257.14285714285717" width="14.785714285714286" height="14.785714285714286"/><rect x="214.2857142857143" y="257.14285714285717" width="14.785714285714286" height="14.785714285714286"/><rect x="228.57142857142858" y="257.14285714285717" width="14.785714285714286" height="14.785714285714286"/><rect x="257.14285714285717" y="257.14285714285717" width="14.785714285714286" height="14.785714285714286"/><rect x="285.7142857142857" y="257.14285714285717" width="14.785714285714286" height="14.785714285714286"/><rect x="300" y="257.14285714285717" width="14.785714285714286" height="14.785714285714286"/><rect x="314.2857142857143" y="257.14285714285717" width="14.785714285714286" height="14.785714285714286"/><rect x="342.8571428571429" y="257.14285714285717" width="14.785714285714286" height="14.785714285714286"/><rect x="357.14285714285717" y="257.14285714285717" width="14.785714285714286" height="14.785714285714286"/><rect x="385.7142857142857" y="257.14285714285717" width="14.785714285714286" height="14.785714285714286"/><rect x="428.5714285714286" y="257.14285714285717" width="14.785714285714286" height="14.785714285714286"/><rect x="457.14285714285717" y="257.14285714285717" width="14.785714285714286" height="14.785714285714286"/><rect x="471.42857142857144" y="257.14285714285717" width="14.785714285714286" height="14.785714285714286"/><rect x="71.42857142857143" y="271.42857142857144" width="14.785714285714286" height="14.785714285714286"/><rect x="85.71428571428572" y="271.42857142857144" width="14.785714285714286" height="14.785714285714286"/><rect x="100" y="271.42857142857144" width="14.785714285714286" height="14.785714285714286"/><rect x="157.14285714285714" y="271.42857142857144" width="14.785714285714286" height="14.785714285714286"/><rect x="200" y="271.42857142857144" width="14.785714285714286" height="14.785714285714286"/><rect x="214.2857142857143" y="271.42857142857144" width="14.785714285714286" height="14.785714285714286"/><rect x="228.57142857142858" y="271.42857142857144" width="14.785714285714286" height="14.785714285714286"/><rect x="242.85714285714286" y="271.42857142857144" width="14.785714285714286" height="14.785714285714286"/><rect x="314.2857142857143" y="271.42857142857144" width="14.785714285714286" height="14.785714285714286"/><rect x="371.42857142857144" y="271.42857142857144" width="14.785714285714286" height="14.785714285714286"/><rect x="400" y="271.42857142857144" width="14.785714285714286" height="14.785714285714286"/><rect x="428.5714285714286" y="271.42857142857144" width="14.785714285714286" height="14.785714285714286"/><rect x="457.14285714285717" y="271.42857142857144" width="14.785714285714286" height="14.785714285714286"/><rect x="14.285714285714286" y="285.7142857142857" width="14.785714285714286" height="14.785714285714286"/><rect x="28.571428571428573" y="285.7142857142857" width="14.785714285714286" height="14.785714285714286"/><rect x="42.85714285714286" y="285.7142857142857" width="14.785714285714286" height="14.785714285714286"/><rect x="71.42857142857143" y="285.7142857142857" width="14.785714285714286" height="14.785714285714286"/><rect x="114.28571428571429" y="285.7142857142857" width="14.785714285714286" height="14.785714285714286"/><rect x="142.85714285714286" y="285.7142857142857" width="14.785714285714286" height="14.785714285714286"/><rect x="185.71428571428572" y="285.7142857142857" width="14.785714285714286" height="14.785714285714286"/><rect x="200" y="285.7142857142857" width="14.785714285714286" height="14.785714285714286"/><rect x="228.57142857142858" y="285.7142857142857" width="14.785714285714286" height="14.785714285714286"/><rect x="300" y="285.7142857142857" width="14.785714285714286" height="14.785714285714286"/><rect x="314.2857142857143" y="285.7142857142857" width="14.785714285714286" height="14.785714285714286"/><rect x="328.5714285714286" y="285.7142857142857" width="14.785714285714286" height="14.785714285714286"/><rect x="442.8571428571429" y="285.7142857142857" width="14.785714285714286" height="14.785714285714286"/><rect x="42.85714285714286" y="300" width="14.785714285714286" height="14.785714285714286"/><rect x="85.71428571428572" y="300" width="14.785714285714286" height="14.785714285714286"/><rect x="100" y="300" width="14.785714285714286" height="14.785714285714286"/><rect x="128.57142857142858" y="300" width="14.785714285714286" height="14.785714285714286"/><rect x="142.85714285714286" y="300" width="14.785714285714286" height="14.785714285714286"/><rect x="157.14285714285714" y="300" width="14.785714285714286" height="14.785714285714286"/><rect x="185.71428571428572" y="300" width="14.785714285714286" height="14.785714285714286"/><rect x="214.2857142857143" y="300" width="14.785714285714286" height="14.785714285714286"/><rect x="228.57142857142858" y="300" width="14.785714285714286" height="14.785714285714286"/><rect x="257.14285714285717" y="300" width="14.785714285714286" height="14.785714285714286"/><rect x="271.42857142857144" y="300" width="14.785714285714286" height="14.785714285714286"/><rect x="300" y="300" width="14.785714285714286" height="14.785714285714286"/><rect x="328.5714285714286" y="300" width="14.785714285714286" height="14.785714285714286"/><rect x="342.8571428571429" y="300" width="14.785714285714286" height="14.785714285714286"/><rect x="357.14285714285717" y="300" width="14.785714285714286" height="14.785714285714286"/><rect x="371.42857142857144" y="300" width="14.785714285714286" height="14.785714285714286"/><rect x="414.28571428571433" y="300" width="14.785714285714286" height="14.785714285714286"/><rect x="457.14285714285717" y="300" width="14.785714285714286" height="14.785714285714286"/><rect x="14.285714285714286" y="314.2857142857143" width="14.785714285714286" height="14.785714285714286"/><rect x="57.142857142857146" y="314.2857142857143" width="14.785714285714286" height="14.785714285714286"/><rect x="71.42857142857143" y="314.2857142857143" width="14.785714285714286" height="14.785714285714286"/><rect x="128.57142857142858" y="314.2857142857143" width="14.785714285714286" height="14.785714285714286"/><rect x="142.85714285714286" y="314.2857142857143" width="14.785714285714286" height="14.785714285714286"/><rect x="228.57142857142858" y="314.2857142857143" width="14.785714285714286" height="14.785714285714286"/><rect x="242.85714285714286" y="314.2857142857143" width="14.785714285714286" height="14.785714285714286"/><rect x="285.7142857142857" y="314.2857142857143" width="14.785714285714286" height="14.785714285714286"/><rect x="300" y="314.2857142857143" width="14.785714285714286" height="14.785714285714286"/><rect x="314.2857142857143" y="314.2857142857143" width="14.785714285714286" height="14.785714285714286"/><rect x="342.8571428571429" y="314.2857142857143" width="14.785714285714286" height="14.785714285714286"/><rect x="371.42857142857144" y="314.2857142857143" width="14.785714285714286" height="14.785714285714286"/><rect x="385.7142857142857" y="314.2857142857143" width="14.785714285714286" height="14.785714285714286"/><rect x="428.5714285714286" y="314.2857142857143" width="14.785714285714286" height="14.785714285714286"/><rect x="457.14285714285717" y="314.2857142857143" width="14.785714285714286" height="14.785714285714286"/><rect x="471.42857142857144" y="314.2857142857143" width="14.785714285714286" height="14.785714285714286"/><rect x="14.285714285714286" y="328.5714285714286" width="14.785714285714286" height="14.785714285714286"/><rect x="85.71428571428572" y="328.5714285714286" width="14.785714285714286" height="14.785714285714286"/><rect x="100" y="328.5714285714286" width="14.785714285714286" height="14.785714285714286"/><rect x="114.28571428571429" y="328.5714285714286" width="14.785714285714286" height="14.785714285714286"/><rect x="128.57142857142858" y="328.5714285714286" width="14.785714285714286" height="14.785714285714286"/><rect x="171.42857142857144" y="328.5714285714286" width="14.785714285714286" height="14.785714285714286"/><rect x="185.71428571428572" y="328.5714285714286" width="14.785714285714286" height="14.785714285714286"/><rect x="271.42857142857144" y="328.5714285714286" width="14.785714285714286" height="14.785714285714286"/><rect x="300" y="328.5714285714286" width="14.785714285714286" height="14.785714285714286"/><rect x="400" y="328.5714285714286" width="14.785714285714286" height="14.785714285714286"/><rect x="414.28571428571433" y="328.5714285714286" width="14.785714285714286" height="14.785714285714286"/><rect x="428.5714285714286" y="328.5714285714286" width="14.785714285714286" height="14.785714285714286"/><rect x="457.14285714285717" y="328.5714285714286" width="14.785714285714286" height="14.785714285714286"/><rect x="14.285714285714286" y="342.8571428571429" width="14.785714285714286" height="14.785714285714286"/><rect x="57.142857142857146" y="342.8571428571429" width="14.785714285714286" height="14.785714285714286"/><rect x="71.42857142857143" y="342.8571428571429" width="14.785714285714286" height="14.785714285714286"/><rect x="128.57142857142858" y="342.8571428571429" width="14.785714285714286" height="14.785714285714286"/><rect x="171.42857142857144" y="342.8571428571429" width="14.785714285714286" height="14.785714285714286"/><rect x="214.2857142857143" y="342.8571428571429" width="14.785714285714286" height="14.785714285714286"/><rect x="242.85714285714286" y="342.8571428571429" width="14.785714285714286" height="14.785714285714286"/><rect x="271.42857142857144" y="342.8571428571429" width="14.785714285714286" height="14.785714285714286"/><rect x="285.7142857142857" y="342.8571428571429" width="14.785714285714286" height="14.785714285714286"/><rect x="300" y="342.8571428571429" width="14.785714285714286" height="14.785714285714286"/><rect x="314.2857142857143" y="342.8571428571429" width="14.785714285714286" height="14.785714285714286"/><rect x="328.5714285714286" y="342.8571428571429" width="14.785714285714286" height="14.785714285714286"/><rect x="342.8571428571429" y="342.8571428571429" width="14.785714285714286" height="14.785714285714286"/><rect x="371.42857142857144" y="342.8571428571429" width="14.785714285714286" height="14.785714285714286"/><rect x="385.7142857142857" y="342.8571428571429" width="14.785714285714286" height="14.785714285714286"/><rect x="414.28571428571433" y="342.8571428571429" width="14.785714285714286" height="14.785714285714286"/><rect x="428.5714285714286" y="342.8571428571429" width="14.785714285714286" height="14.785714285714286"/><rect x="442.8571428571429" y="342.8571428571429" width="14.785714285714286" height="14.785714285714286"/><rect x="14.285714285714286" y="357.14285714285717" width="14.785714285714286" height="14.785714285714286"/><rect x="42.85714285714286" y="357.14285714285717" width="14.785714285714286" height="14.785714285714286"/><rect x="71.42857142857143" y="357.14285714285717" width="14.785714285714286" height="14.785714285714286"/><rect x="85.71428571428572" y="357.14285714285717" width="14.785714285714286" height="14.785714285714286"/><rect x="100" y="357.14285714285717" width="14.785714285714286" height="14.785714285714286"/><rect x="114.28571428571429" y="357.14285714285717" width="14.785714285714286" height="14.785714285714286"/><rect x="128.57142857142858" y="357.14285714285717" width="14.785714285714286" height="14.785714285714286"/><rect x="157.14285714285714" y="357.14285714285717" width="14.785714285714286" height="14.785714285714286"/><rect x="171.42857142857144" y="357.14285714285717" width="14.785714285714286" height="14.785714285714286"/><rect x="242.85714285714286" y="357.14285714285717" width="14.785714285714286" height="14.785714285714286"/><rect x="271.42857142857144" y="357.14285714285717" width="14.785714285714286" height="14.785714285714286"/><rect x="285.7142857142857" y="357.14285714285717" width="14.785714285714286" height="14.785714285714286"/><rect x="300" y="357.14285714285717" width="14.785714285714286" height="14.785714285714286"/><rect x="328.5714285714286" y="357.14285714285717" width="14.785714285714286" height="14.785714285714286"/><rect x="342.8571428571429" y="357.14285714285717" width="14.785714285714286" height="14.785714285714286"/><rect x="357.14285714285717" y="357.14285714285717" width="14.785714285714286" height="14.785714285714286"/><rect x="371.42857142857144" y="357.14285714285717" width="14.785714285714286" height="14.785714285714286"/><rect x="385.7142857142857" y="357.14285714285717" width="14.785714285714286" height="14.785714285714286"/><rect x="400" y="357.14285714285717" width="14.785714285714286" height="14.785714285714286"/><rect x="414.28571428571433" y="357.14285714285717" width="14.785714285714286" height="14.785714285714286"/><rect x="428.5714285714286" y="357.14285714285717" width="14.785714285714286" height="14.785714285714286"/><rect x="471.42857142857144" y="357.14285714285717" width="14.785714285714286" height="14.785714285714286"/><rect x="128.57142857142858" y="371.42857142857144" width="14.785714285714286" height="14.785714285714286"/><rect x="185.71428571428572" y="371.42857142857144" width="14.785714285714286" height="14.785714285714286"/><rect x="200" y="371.42857142857144" width="14.785714285714286" height="14.785714285714286"/><rect x="214.2857142857143" y="371.42857142857144" width="14.785714285714286" height="14.785714285714286"/><rect x="228.57142857142858" y="371.42857142857144" width="14.785714285714286" height="14.785714285714286"/><rect x="257.14285714285717" y="371.42857142857144" width="14.785714285714286" height="14.785714285714286"/><rect x="271.42857142857144" y="371.42857142857144" width="14.785714285714286" height="14.785714285714286"/><rect x="300" y="371.42857142857144" width="14.785714285714286" height="14.785714285714286"/><rect x="357.14285714285717" y="371.42857142857144" width="14.785714285714286" height="14.785714285714286"/><rect x="414.28571428571433" y="371.42857142857144" width="14.785714285714286" height="14.785714285714286"/><rect x="428.5714285714286" y="371.42857142857144" width="14.785714285714286" height="14.785714285714286"/><rect x="442.8571428571429" y="371.42857142857144" width="14.785714285714286" height="14.785714285714286"/><rect x="471.42857142857144" y="371.42857142857144" width="14.785714285714286" height="14.785714285714286"/><rect x="128.57142857142858" y="385.7142857142857" width="14.785714285714286" height="14.785714285714286"/><rect x="200" y="385.7142857142857" width="14.785714285714286" height="14.785714285714286"/><rect x="214.2857142857143" y="385.7142857142857" width="14.785714285714286" height="14.785714285714286"/><rect x="228.57142857142858" y="385.7142857142857" width="14.785714285714286" height="14.785714285714286"/><rect x="242.85714285714286" y="385.7142857142857" width="14.785714285714286" height="14.785714285714286"/><rect x="257.14285714285717" y="385.7142857142857" width="14.785714285714286" height="14.785714285714286"/><rect x="300" y="385.7142857142857" width="14.785714285714286" height="14.785714285714286"/><rect x="342.8571428571429" y="385.7142857142857" width="14.785714285714286" height="14.785714285714286"/><rect x="357.14285714285717" y="385.7142857142857" width="14.785714285714286" height="14.785714285714286"/><rect x="385.7142857142857" y="385.7142857142857" width="14.785714285714286" height="14.785714285714286"/><rect x="414.28571428571433" y="385.7142857142857" width="14.785714285714286" height="14.785714285714286"/><rect x="428.5714285714286" y="385.7142857142857" width="14.785714285714286" height="14.785714285714286"/><rect x="457.14285714285717" y="385.7142857142857" width="14.785714285714286" height="14.785714285714286"/><rect x="185.71428571428572" y="400" width="14.785714285714286" height="14.785714285714286"/><rect x="200" y="400" width="14.785714285714286" height="14.785714285714286"/><rect x="228.57142857142858" y="400" width="14.785714285714286" height="14.785714285714286"/><rect x="257.14285714285717" y="400" width="14.785714285714286" height="14.785714285714286"/><rect x="271.42857142857144" y="400" width="14.785714285714286" height="14.785714285714286"/><rect x="285.7142857142857" y="400" width="14.785714285714286" height="14.785714285714286"/><rect x="314.2857142857143" y="400" width="14.785714285714286" height="14.785714285714286"/><rect x="328.5714285714286" y="400" width="14.785714285714286" height="14.785714285714286"/><rect x="342.8571428571429" y="400" width="14.785714285714286" height="14.785714285714286"/><rect x="357.14285714285717" y="400" width="14.785714285714286" height="14.785714285714286"/><rect x="414.28571428571433" y="400" width="14.785714285714286" height="14.785714285714286"/><rect x="428.5714285714286" y="400" width="14.785714285714286" height="14.785714285714286"/><rect x="442.8571428571429" y="400" width="14.785714285714286" height="14.785714285714286"/><rect x="457.14285714285717" y="400" width="14.785714285714286" height="14.785714285714286"/><rect x="128.57142857142858" y="414.28571428571433" width="14.785714285714286" height="14.785714285714286"/><rect x="185.71428571428572" y="414.28571428571433" width="14.785714285714286" height="14.785714285714286"/><rect x="214.2857142857143" y="414.28571428571433" width="14.785714285714286" height="14.785714285714286"/><rect x="228.57142857142858" y="414.28571428571433" width="14.785714285714286" height="14.785714285714286"/><rect x="300" y="414.28571428571433" width="14.785714285714286" height="14.785714285714286"/><rect x="328.5714285714286" y="414.28571428571433" width="14.785714285714286" height="14.785714285714286"/><rect x="357.14285714285717" y="414.28571428571433" width="14.785714285714286" height="14.785714285714286"/><rect x="371.42857142857144" y="414.28571428571433" width="14.785714285714286" height="14.785714285714286"/><rect x="385.7142857142857" y="414.28571428571433" width="14.785714285714286" height="14.785714285714286"/><rect x="400" y="414.28571428571433" width="14.785714285714286" height="14.785714285714286"/><rect x="414.28571428571433" y="414.28571428571433" width="14.785714285714286" height="14.785714285714286"/><rect x="428.5714285714286" y="414.28571428571433" width="14.785714285714286" height="14.785714285714286"/><rect x="128.57142857142858" y="428.5714285714286" width="14.785714285714286" height="14.785714285714286"/><rect x="228.57142857142858" y="428.5714285714286" width="14.785714285714286" height="14.785714285714286"/><rect x="242.85714285714286" y="428.5714285714286" width="14.785714285714286" height="14.785714285714286"/><rect x="271.42857142857144" y="428.5714285714286" width="14.785714285714286" height="14.785714285714286"/><rect x="285.7142857142857" y="428.5714285714286" width="14.785714285714286" height="14.785714285714286"/><rect x="300" y="428.5714285714286" width="14.785714285714286" height="14.785714285714286"/><rect x="314.2857142857143" y="428.5714285714286" width="14.785714285714286" height="14.785714285714286"/><rect x="342.8571428571429" y="428.5714285714286" width="14.785714285714286" height="14.785714285714286"/><rect x="400" y="428.5714285714286" width="14.785714285714286" height="14.785714285714286"/><rect x="414.28571428571433" y="428.5714285714286" width="14.785714285714286" height="14.785714285714286"/><rect x="428.5714285714286" y="428.5714285714286" width="14.785714285714286" height="14.785714285714286"/><rect x="442.8571428571429" y="428.5714285714286" width="14.785714285714286" height="14.785714285714286"/><rect x="457.14285714285717" y="428.5714285714286" width="14.785714285714286" height="14.785714285714286"/><rect x="471.42857142857144" y="428.5714285714286" width="14.785714285714286" height="14.785714285714286"/><rect x="128.57142857142858" y="442.8571428571429" width="14.785714285714286" height="14.785714285714286"/><rect x="157.14285714285714" y="442.8571428571429" width="14.785714285714286" height="14.785714285714286"/><rect x="171.42857142857144" y="442.8571428571429" width="14.785714285714286" height="14.785714285714286"/><rect x="185.71428571428572" y="442.8571428571429" width="14.785714285714286" height="14.785714285714286"/><rect x="271.42857142857144" y="442.8571428571429" width="14.785714285714286" height="14.785714285714286"/><rect x="314.2857142857143" y="442.8571428571429" width="14.785714285714286" height="14.785714285714286"/><rect x="328.5714285714286" y="442.8571428571429" width="14.785714285714286" height="14.785714285714286"/><rect x="357.14285714285717" y="442.8571428571429" width="14.785714285714286" height="14.785714285714286"/><rect x="385.7142857142857" y="442.8571428571429" width="14.785714285714286" height="14.785714285714286"/><rect x="400" y="442.8571428571429" width="14.785714285714286" height="14.785714285714286"/><rect x="428.5714285714286" y="442.8571428571429" width="14.785714285714286" height="14.785714285714286"/><rect x="128.57142857142858" y="457.14285714285717" width="14.785714285714286" height="14.785714285714286"/><rect x="157.14285714285714" y="457.14285714285717" width="14.785714285714286" height="14.785714285714286"/><rect x="171.42857142857144" y="457.14285714285717" width="14.785714285714286" height="14.785714285714286"/><rect x="214.2857142857143" y="457.14285714285717" width="14.785714285714286" height="14.785714285714286"/><rect x="242.85714285714286" y="457.14285714285717" width="14.785714285714286" height="14.785714285714286"/><rect x="285.7142857142857" y="457.14285714285717" width="14.785714285714286" height="14.785714285714286"/><rect x="314.2857142857143" y="457.14285714285717" width="14.785714285714286" height="14.785714285714286"/><rect x="328.5714285714286" y="457.14285714285717" width="14.785714285714286" height="14.785714285714286"/><rect x="371.42857142857144" y="457.14285714285717" width="14.785714285714286" height="14.785714285714286"/><rect x="385.7142857142857" y="457.14285714285717" width="14.785714285714286" height="14.785714285714286"/><rect x="414.28571428571433" y="457.14285714285717" width="14.785714285714286" height="14.785714285714286"/><rect x="428.5714285714286" y="457.14285714285717" width="14.785714285714286" height="14.785714285714286"/><rect x="442.8571428571429" y="457.14285714285717" width="14.785714285714286" height="14.785714285714286"/><rect x="128.57142857142858" y="471.42857142857144" width="14.785714285714286" height="14.785714285714286"/><rect x="171.42857142857144" y="471.42857142857144" width="14.785714285714286" height="14.785714285714286"/><rect x="242.85714285714286" y="471.42857142857144" width="14.785714285714286" height="14.785714285714286"/><rect x="271.42857142857144" y="471.42857142857144" width="14.785714285714286" height="14.785714285714286"/><rect x="300" y="471.42857142857144" width="14.785714285714286" height="14.785714285714286"/><rect x="328.5714285714286" y="471.42857142857144" width="14.785714285714286" height="14.785714285714286"/><rect x="342.8571428571429" y="471.42857142857144" width="14.785714285714286" height="14.785714285714286"/><rect x="357.14285714285717" y="471.42857142857144" width="14.785714285714286" height="14.785714285714286"/><rect x="385.7142857142857" y="471.42857142857144" width="14.785714285714286" height="14.785714285714286"/><rect x="428.5714285714286" y="471.42857142857144" width="14.785714285714286" height="14.785714285714286"/><rect x="457.14285714285717" y="471.42857142857144" width="14.785714285714286" height="14.785714285714286"/></g><path fill="#000000" fill-rule="evenodd" d="M 14.285714285714286,14.285714285714286 H 114.28571428571429 V 114.28571428571429 H 14.285714285714286 Z M 28.571428571428573,28.571428571428573 H 100 V 100 H 28.571428571428573 Z"/><rect x="42.85714285714286" y="42.85714285714286" width="42.857142857142854" height="42.857142857142854" fill="#000000"/><path fill="#000000" fill-rule="evenodd" d="M 385.7142857142857,14.285714285714286 H 485.7142857142857 V 114.28571428571429 H 385.7142857142857 Z M 400,28.571428571428573 H 471.42857142857144 V 100 H 400 Z"/><rect x="414.2857142857143" y="42.85714285714286" width="42.857142857142854" height="42.857142857142854" fill="#000000"/><path fill="#000000" fill-rule="evenodd" d="M 14.285714285714286,385.7142857142857 H 114.28571428571429 V 485.7142857142857 H 14.285714285714286 Z M 28.571428571428573,400 H 100 V 471.42857142857144 H 28.571428571428573 Z"/><rect x="42.85714285714286" y="414.2857142857143" width="42.857142857142854" height="42.857142857142854" fill="#000000"/></svg>